<svg xmlns="http://www.w3.org/2000/svg" xmlns:xlink="http://www.w3.org/1999/xlink" width="500" zoomAndPan="magnify" viewBox="0 0 375 374.999991" height="500" preserveAspectRatio="xMidYMid meet" version="1.0"><defs><g/><clipPath id="f5b4c4f6bc"><path d="M 14 8 L 335 8 L 335 342 L 14 342 Z M 14 8 " clip-rule="nonzero"/></clipPath><clipPath id="fe7d1def5c"><path d="M -9.953125 33.75 L 315.425781 -11.429688 L 362.773438 329.546875 L 37.394531 374.726562 Z M -9.953125 33.75 " clip-rule="nonzero"/></clipPath><clipPath id="470ad8c089"><path d="M 315.507812 -11.441406 L -9.871094 33.738281 L 37.476562 374.714844 L 362.851562 329.535156 Z M 315.507812 -11.441406 " clip-rule="nonzero"/></clipPath><clipPath id="b2709dfab7"><path d="M 25 22 L 324 22 L 324 332 L 25 332 Z M 25 22 " clip-rule="nonzero"/></clipPath><clipPath id="d9528bcf57"><path d="M 2.785156 45.453125 L 305.878906 3.371094 L 350.027344 321.320312 L 46.933594 363.40625 Z M 2.785156 45.453125 " clip-rule="nonzero"/></clipPath><clipPath id="4e17882da7"><path d="M 306.007812 3.351562 L 2.914062 45.4375 L 47.0625 363.386719 L 350.152344 321.300781 Z M 306.007812 3.351562 " clip-rule="nonzero"/></clipPath><clipPath id="a7b6616433"><path d="M 127.527344 70 L 247.527344 70 L 247.527344 198.519531 L 127.527344 198.519531 Z M 127.527344 70 " clip-rule="nonzero"/></clipPath><clipPath id="545ba36dfd"><path d="M 123 168 L 243 168 L 243 214 L 123 214 Z M 123 168 " clip-rule="nonzero"/></clipPath><clipPath id="133d3341f0"><path d="M 175.035156 263.867188 L 99.078125 170 L 191.195312 95.457031 L 267.152344 189.324219 Z M 175.035156 263.867188 " clip-rule="nonzero"/></clipPath><clipPath id="b8dd8036e8"><path d="M 220.855469 226.789062 C 233.007812 216.953125 240.757812 202.695312 242.398438 187.148438 C 244.035156 171.601562 239.433594 156.039062 229.597656 143.886719 L 228.183594 142.132812 C 218.347656 129.980469 204.089844 122.234375 188.542969 120.59375 C 172.996094 118.953125 157.433594 123.558594 145.28125 133.390625 C 133.128906 143.226562 125.378906 157.484375 123.738281 173.03125 C 122.101562 188.578125 126.703125 204.140625 136.539062 216.292969 L 137.953125 218.042969 C 147.789062 230.199219 162.046875 237.945312 177.59375 239.585938 C 193.140625 241.226562 208.703125 236.621094 220.855469 226.789062 Z M 220.855469 226.789062 " clip-rule="nonzero"/></clipPath><clipPath id="9e15dfa409"><path d="M 175.035156 263.867188 L 99.546875 170.582031 L 191.082031 96.511719 L 266.570312 189.796875 Z M 175.035156 263.867188 " clip-rule="nonzero"/></clipPath><clipPath id="1ba3b5a5a5"><path d="M 175.035156 263.867188 L 99.546875 170.582031 L 191.082031 96.511719 L 266.570312 189.796875 Z M 175.035156 263.867188 " clip-rule="nonzero"/></clipPath></defs><g clip-path="url(#f5b4c4f6bc)"><g clip-path="url(#fe7d1def5c)"><g clip-path="url(#470ad8c089)"><path fill="#55298b" d="M 275.125 268.417969 C 278.785156 249.25 297.539062 237.597656 310.761719 223.230469 C 332.0625 200.113281 340.039062 165.457031 331.027344 135.316406 C 320.257812 99.503906 289.25 74.363281 264.542969 46.242188 C 255.496094 35.957031 246.929688 24.828125 235.328125 17.570312 C 214.042969 4.246094 184.511719 6.851562 164.78125 22.378906 C 147.632812 35.875 137.433594 57.59375 118.21875 67.945312 C 110.195312 72.253906 101.164062 74.265625 92.421875 76.855469 C 67.347656 84.386719 43.292969 98.179688 28.332031 119.671875 C 13.371094 141.164062 9.144531 171.121094 22.136719 193.859375 C 28.484375 204.964844 38.367188 213.75 44.570312 224.953125 C 56.808594 247.230469 52.785156 275.898438 65.78125 297.742188 C 72.355469 308.785156 82.765625 317.070312 93.867188 323.488281 C 95.679688 324.53125 97.515625 325.535156 99.375 326.492188 C 101.234375 327.449219 103.117188 328.363281 105.019531 329.230469 C 106.921875 330.101562 108.847656 330.925781 110.789062 331.703125 C 112.730469 332.484375 114.6875 333.214844 116.664062 333.902344 C 118.640625 334.589844 120.632812 335.226562 122.640625 335.820312 C 124.648438 336.414062 126.664062 336.957031 128.699219 337.453125 C 130.730469 337.953125 132.773438 338.402344 134.828125 338.800781 C 136.878906 339.203125 138.941406 339.554688 141.011719 339.859375 C 143.082031 340.164062 145.15625 340.417969 147.238281 340.625 C 149.320312 340.832031 151.40625 340.988281 153.496094 341.097656 C 155.585938 341.203125 157.675781 341.261719 159.769531 341.273438 C 161.863281 341.28125 163.953125 341.242188 166.042969 341.152344 C 168.132812 341.0625 170.21875 340.925781 172.304688 340.738281 C 174.386719 340.550781 176.464844 340.3125 178.539062 340.027344 C 180.613281 339.742188 182.675781 339.410156 184.734375 339.027344 C 186.789062 338.644531 188.835938 338.214844 190.875 337.734375 C 192.910156 337.253906 194.933594 336.730469 196.945312 336.15625 C 198.957031 335.578125 200.957031 334.957031 202.9375 334.289062 C 204.921875 333.621094 206.886719 332.90625 208.835938 332.144531 C 210.785156 331.382812 212.714844 330.578125 214.625 329.726562 C 216.535156 328.875 218.425781 327.976562 220.292969 327.035156 C 222.164062 326.09375 224.007812 325.109375 225.832031 324.082031 C 227.652344 323.054688 229.449219 321.984375 231.222656 320.871094 C 232.992188 319.757812 234.738281 318.605469 236.457031 317.410156 C 238.171875 316.214844 239.859375 314.980469 241.519531 313.707031 C 243.179688 312.433594 244.808594 311.121094 246.40625 309.769531 C 248.003906 308.417969 249.566406 307.027344 251.101562 305.605469 C 252.632812 304.179688 254.128906 302.71875 255.59375 301.222656 C 257.054688 299.730469 258.484375 298.199219 259.875 296.636719 C 261.265625 295.074219 262.621094 293.480469 263.933594 291.851562 C 265.25 290.226562 266.527344 288.570312 267.765625 286.882812 C 269.003906 285.199219 270.203125 283.484375 271.359375 281.738281 " fill-opacity="1" fill-rule="nonzero"/></g></g></g><g clip-path="url(#b2709dfab7)"><g clip-path="url(#d9528bcf57)"><g clip-path="url(#4e17882da7)"><path fill="#ffffff" d="M 268.382812 264.089844 C 271.792969 246.230469 289.265625 235.375 301.585938 221.988281 C 321.429688 200.449219 328.859375 168.164062 320.464844 140.082031 C 310.429688 106.714844 281.542969 83.292969 258.527344 57.09375 C 250.097656 47.511719 242.113281 37.144531 231.308594 30.382812 C 211.472656 17.964844 183.960938 20.398438 165.578125 34.863281 C 149.601562 47.4375 140.101562 67.667969 122.199219 77.3125 C 114.726562 81.328125 106.308594 83.203125 98.164062 85.613281 C 74.804688 92.632812 52.394531 105.480469 38.453125 125.507812 C 24.515625 145.53125 20.578125 173.441406 32.683594 194.625 C 38.597656 204.972656 47.804688 213.15625 53.582031 223.59375 C 64.984375 244.347656 61.234375 271.058594 73.34375 291.40625 C 79.46875 301.695312 89.167969 309.414062 99.511719 315.394531 C 101.199219 316.367188 102.910156 317.300781 104.644531 318.195312 C 106.375 319.085938 108.128906 319.9375 109.902344 320.746094 C 111.675781 321.554688 113.464844 322.324219 115.277344 323.050781 C 117.085938 323.773438 118.910156 324.457031 120.75 325.097656 C 122.59375 325.738281 124.449219 326.332031 126.316406 326.882812 C 128.1875 327.4375 130.070312 327.945312 131.960938 328.40625 C 133.855469 328.871094 135.757812 329.289062 137.671875 329.664062 C 139.585938 330.035156 141.503906 330.363281 143.433594 330.648438 C 145.363281 330.929688 147.296875 331.167969 149.238281 331.359375 C 151.175781 331.554688 153.121094 331.699219 155.066406 331.800781 C 157.011719 331.902344 158.960938 331.957031 160.910156 331.964844 C 162.859375 331.972656 164.808594 331.9375 166.753906 331.851562 C 168.703125 331.769531 170.648438 331.640625 172.589844 331.464844 C 174.53125 331.292969 176.464844 331.070312 178.398438 330.804688 C 180.328125 330.539062 182.25 330.230469 184.167969 329.871094 C 186.085938 329.515625 187.992188 329.113281 189.890625 328.667969 C 191.785156 328.222656 193.671875 327.730469 195.546875 327.195312 C 197.421875 326.660156 199.28125 326.082031 201.128906 325.457031 C 202.976562 324.835938 204.808594 324.171875 206.621094 323.460938 C 208.4375 322.75 210.238281 322 212.015625 321.207031 C 213.796875 320.414062 215.558594 319.578125 217.296875 318.699219 C 219.039062 317.824219 220.757812 316.90625 222.457031 315.949219 C 224.152344 314.992188 225.828125 313.992188 227.480469 312.957031 C 229.128906 311.921875 230.753906 310.847656 232.355469 309.734375 C 233.957031 308.621094 235.527344 307.46875 237.074219 306.28125 C 238.621094 305.09375 240.136719 303.871094 241.625 302.613281 C 243.113281 301.355469 244.570312 300.0625 246 298.734375 C 247.425781 297.40625 248.820312 296.046875 250.183594 294.652344 C 251.546875 293.257812 252.878906 291.835938 254.175781 290.378906 C 255.46875 288.921875 256.730469 287.4375 257.957031 285.921875 C 259.183594 284.40625 260.375 282.863281 261.527344 281.292969 C 262.679688 279.722656 263.796875 278.125 264.875 276.5 " fill-opacity="1" fill-rule="nonzero"/></g></g></g><g clip-path="url(#a7b6616433)"><path fill="#ff914d" d="M 149.335938 137.230469 C 157.390625 137.203125 164.417969 132.835938 168.203125 126.347656 L 168.257812 126.242188 C 169.132812 127.777344 170.101562 129.101562 171.210938 130.304688 L 171.195312 130.289062 C 175.269531 134.566406 181.011719 137.230469 187.371094 137.230469 C 193.730469 137.230469 199.472656 134.566406 203.535156 130.296875 L 203.546875 130.289062 C 204.636719 129.101562 205.609375 127.777344 206.425781 126.347656 L 206.480469 126.242188 C 210.339844 132.808594 217.363281 137.144531 225.40625 137.144531 C 237.488281 137.144531 247.28125 127.351562 247.28125 115.269531 C 247.28125 113.75 247.128906 112.269531 246.835938 110.839844 L 246.859375 110.980469 L 241.132812 82.351562 C 239.675781 75.316406 233.53125 70.097656 226.167969 70.082031 L 148.523438 70.082031 C 141.160156 70.097656 135.015625 75.316406 133.578125 82.253906 L 133.558594 82.351562 L 127.832031 110.980469 C 127.558594 112.28125 127.402344 113.773438 127.402344 115.300781 C 127.402344 127.410156 137.21875 137.226562 149.328125 137.226562 C 149.332031 137.226562 149.332031 137.226562 149.335938 137.226562 Z M 226.167969 76.191406 C 230.589844 76.191406 234.277344 79.324219 235.132812 83.492188 L 235.140625 83.550781 L 240.875 112.203125 C 241.070312 113.132812 241.179688 114.207031 241.179688 115.300781 C 241.179688 124.042969 234.09375 131.128906 225.351562 131.128906 C 216.988281 131.128906 210.132812 124.636719 209.5625 116.417969 L 209.5625 116.371094 L 209.390625 113.859375 L 206.875 76.195312 Z M 173.917969 76.191406 L 200.773438 76.191406 L 203.308594 114.25 C 203.332031 114.585938 203.347656 114.976562 203.347656 115.367188 C 203.347656 119.53125 201.71875 123.3125 199.070312 126.117188 L 199.078125 126.109375 C 196.175781 129.207031 192.0625 131.132812 187.496094 131.132812 C 187.386719 131.132812 187.277344 131.132812 187.171875 131.128906 L 187.1875 131.128906 C 187.1875 131.128906 187.183594 131.128906 187.183594 131.128906 C 178.445312 131.128906 171.355469 124.042969 171.355469 115.300781 C 171.355469 114.933594 171.367188 114.566406 171.394531 114.203125 L 171.390625 114.25 Z M 133.816406 112.203125 L 139.546875 83.5625 C 140.410156 79.332031 144.101562 76.191406 148.523438 76.191406 L 167.8125 76.191406 L 165.3125 113.839844 L 165.128906 116.355469 C 164.5625 124.632812 157.707031 131.132812 149.332031 131.132812 C 140.59375 131.132812 133.507812 124.046875 133.507812 115.308594 C 133.507812 114.207031 133.621094 113.136719 133.828125 112.101562 L 133.8125 112.203125 Z M 135.460938 143.109375 L 135.460938 183.007812 C 135.460938 191.433594 142.296875 198.269531 150.722656 198.269531 L 223.96875 198.269531 C 232.394531 198.269531 239.230469 191.433594 239.230469 183.007812 L 239.230469 143.09375 C 237.488281 143.988281 235.460938 144.761719 233.339844 145.316406 L 233.125 145.367188 L 233.125 183.007812 C 233.125 188.066406 229.027344 192.164062 223.96875 192.164062 L 202.605469 192.164062 L 202.605469 170.800781 C 202.605469 162.375 195.773438 155.542969 187.347656 155.542969 C 178.917969 155.542969 172.085938 162.375 172.085938 170.800781 L 172.085938 192.164062 L 150.722656 192.164062 C 145.664062 192.164062 141.566406 188.066406 141.566406 183.007812 L 141.566406 145.367188 C 139.230469 144.761719 137.203125 143.988281 135.289062 143.015625 L 135.460938 143.09375 Z M 178.191406 170.800781 C 178.191406 165.742188 182.289062 161.644531 187.347656 161.644531 C 192.402344 161.644531 196.5 165.742188 196.5 170.800781 L 196.5 192.164062 L 178.191406 192.164062 Z M 178.191406 170.800781 " fill-opacity="1" fill-rule="nonzero"/></g><g clip-path="url(#545ba36dfd)"><g clip-path="url(#133d3341f0)"><g clip-path="url(#b8dd8036e8)"><g clip-path="url(#9e15dfa409)"><g clip-path="url(#1ba3b5a5a5)"><path fill="#55298b" d="M 266.59375 189.777344 C 217.382812 228.941406 139.117188 219.320312 102.074219 168.359375 C 140.15625 214.503906 214.875 221.019531 259.394531 180.882812 Z M 266.59375 189.777344 " fill-opacity="1" fill-rule="nonzero"/></g></g></g></g></g><g fill="#55298b" fill-opacity="1"><g transform="translate(104.781621, 244.20839)"><g><path d="M 33.78125 0 L 28.296875 0 L 26.546875 -19.953125 L 19.84375 0 L 16.296875 0 L 9.578125 -19.953125 L 7.828125 0 L 2.328125 0 L 4.546875 -26.484375 L 12.390625 -26.484375 L 18.03125 -9.859375 L 23.75 -26.484375 L 31.59375 -26.484375 Z M 33.78125 0 "/></g></g></g><g fill="#55298b" fill-opacity="1"><g transform="translate(140.888523, 244.20839)"><g><path d="M 18.78125 -21.640625 L 8.96875 -21.640625 L 8.96875 -15.625 L 17.671875 -15.625 L 17.671875 -10.84375 L 8.96875 -10.84375 L 8.96875 -4.859375 L 18.78125 -4.859375 L 18.78125 0 L 3.421875 0 L 3.421875 -26.484375 L 18.78125 -26.484375 Z M 18.78125 -21.640625 "/></g></g></g><g fill="#55298b" fill-opacity="1"><g transform="translate(161.911179, 244.20839)"><g><path d="M 21.515625 -26.484375 L 27 -26.484375 L 27 0 L 20.640625 0 L 8.90625 -18.9375 L 8.90625 0 L 3.421875 0 L 3.421875 -26.484375 L 9.71875 -26.484375 L 21.515625 -7.65625 Z M 21.515625 -26.484375 "/></g></g></g><g fill="#55298b" fill-opacity="1"><g transform="translate(192.336284, 244.20839)"><g><path d="M 15.15625 0.359375 C 13.207031 0.359375 11.410156 0.0390625 9.765625 -0.59375 C 8.117188 -1.226562 6.679688 -2.140625 5.453125 -3.328125 C 4.234375 -4.515625 3.285156 -5.945312 2.609375 -7.625 C 1.941406 -9.300781 1.609375 -11.175781 1.609375 -13.25 C 1.609375 -15.320312 1.941406 -17.195312 2.609375 -18.875 C 3.285156 -20.550781 4.234375 -21.976562 5.453125 -23.15625 C 6.679688 -24.34375 8.117188 -25.253906 9.765625 -25.890625 C 11.410156 -26.523438 13.207031 -26.84375 15.15625 -26.84375 C 17.09375 -26.84375 18.882812 -26.523438 20.53125 -25.890625 C 22.175781 -25.253906 23.609375 -24.34375 24.828125 -23.15625 C 26.046875 -21.976562 26.992188 -20.550781 27.671875 -18.875 C 28.347656 -17.195312 28.6875 -15.320312 28.6875 -13.25 C 28.6875 -11.175781 28.347656 -9.300781 27.671875 -7.625 C 26.992188 -5.945312 26.046875 -4.515625 24.828125 -3.328125 C 23.609375 -2.140625 22.175781 -1.226562 20.53125 -0.59375 C 18.882812 0.0390625 17.09375 0.359375 15.15625 0.359375 Z M 15.15625 -4.671875 C 16.289062 -4.671875 17.347656 -4.863281 18.328125 -5.25 C 19.316406 -5.644531 20.171875 -6.210938 20.890625 -6.953125 C 21.617188 -7.691406 22.1875 -8.585938 22.59375 -9.640625 C 23.007812 -10.703125 23.21875 -11.90625 23.21875 -13.25 C 23.21875 -14.59375 23.007812 -15.789062 22.59375 -16.84375 C 22.1875 -17.894531 21.617188 -18.789062 20.890625 -19.53125 C 20.171875 -20.269531 19.316406 -20.832031 18.328125 -21.21875 C 17.347656 -21.601562 16.289062 -21.796875 15.15625 -21.796875 C 14.019531 -21.796875 12.957031 -21.601562 11.96875 -21.21875 C 10.988281 -20.832031 10.132812 -20.269531 9.40625 -19.53125 C 8.675781 -18.789062 8.109375 -17.894531 7.703125 -16.84375 C 7.296875 -15.789062 7.09375 -14.59375 7.09375 -13.25 C 7.09375 -11.90625 7.296875 -10.703125 7.703125 -9.640625 C 8.109375 -8.585938 8.675781 -7.691406 9.40625 -6.953125 C 10.132812 -6.210938 10.988281 -5.644531 11.96875 -5.25 C 12.957031 -4.863281 14.019531 -4.671875 15.15625 -4.671875 Z M 15.15625 -4.671875 "/></g></g></g><g fill="#55298b" fill-opacity="1"><g transform="translate(222.651419, 244.20839)"><g><path d="M 12.234375 0.359375 C 10.804688 0.359375 9.472656 0.191406 8.234375 -0.140625 C 7.003906 -0.472656 5.90625 -0.96875 4.9375 -1.625 C 3.96875 -2.28125 3.171875 -3.082031 2.546875 -4.03125 C 1.921875 -4.988281 1.503906 -6.085938 1.296875 -7.328125 L 6.75 -8.578125 C 7.132812 -7.054688 7.816406 -5.929688 8.796875 -5.203125 C 9.773438 -4.484375 10.953125 -4.125 12.328125 -4.125 C 13.109375 -4.125 13.8125 -4.234375 14.4375 -4.453125 C 15.0625 -4.679688 15.550781 -5.023438 15.90625 -5.484375 C 16.269531 -5.953125 16.445312 -6.539062 16.4375 -7.25 C 16.4375 -7.90625 16.265625 -8.453125 15.921875 -8.890625 C 15.578125 -9.335938 15.117188 -9.71875 14.546875 -10.03125 C 13.972656 -10.351562 13.316406 -10.632812 12.578125 -10.875 C 11.835938 -11.125 11.066406 -11.375 10.265625 -11.625 C 9.484375 -11.863281 8.707031 -12.117188 7.9375 -12.390625 C 7.164062 -12.671875 6.4375 -13 5.75 -13.375 C 5.070312 -13.757812 4.46875 -14.210938 3.9375 -14.734375 C 3.40625 -15.253906 2.984375 -15.878906 2.671875 -16.609375 C 2.367188 -17.335938 2.21875 -18.195312 2.21875 -19.1875 C 2.21875 -20.40625 2.453125 -21.488281 2.921875 -22.4375 C 3.390625 -23.382812 4.046875 -24.1875 4.890625 -24.84375 C 5.734375 -25.5 6.722656 -25.992188 7.859375 -26.328125 C 8.992188 -26.671875 10.226562 -26.84375 11.5625 -26.84375 C 12.71875 -26.84375 13.859375 -26.71875 14.984375 -26.46875 C 16.109375 -26.21875 17.148438 -25.816406 18.109375 -25.265625 C 19.066406 -24.722656 19.878906 -24.007812 20.546875 -23.125 C 21.222656 -22.238281 21.695312 -21.160156 21.96875 -19.890625 L 16.984375 -18.65625 C 16.566406 -19.925781 15.925781 -20.859375 15.0625 -21.453125 C 14.195312 -22.054688 13.140625 -22.359375 11.890625 -22.359375 C 11.160156 -22.359375 10.484375 -22.25 9.859375 -22.03125 C 9.234375 -21.820312 8.726562 -21.5 8.34375 -21.0625 C 7.96875 -20.632812 7.78125 -20.078125 7.78125 -19.390625 C 7.78125 -18.835938 7.929688 -18.367188 8.234375 -17.984375 C 8.535156 -17.609375 8.945312 -17.285156 9.46875 -17.015625 C 9.988281 -16.753906 10.585938 -16.515625 11.265625 -16.296875 C 11.941406 -16.085938 12.648438 -15.875 13.390625 -15.65625 C 14.203125 -15.40625 15.019531 -15.132812 15.84375 -14.84375 C 16.664062 -14.5625 17.445312 -14.222656 18.1875 -13.828125 C 18.9375 -13.429688 19.609375 -12.945312 20.203125 -12.375 C 20.796875 -11.8125 21.265625 -11.132812 21.609375 -10.34375 C 21.953125 -9.550781 22.125 -8.617188 22.125 -7.546875 C 22.125 -6.285156 21.878906 -5.164062 21.390625 -4.1875 C 20.910156 -3.207031 20.226562 -2.375 19.34375 -1.6875 C 18.457031 -1.007812 17.410156 -0.5 16.203125 -0.15625 C 15.003906 0.1875 13.679688 0.359375 12.234375 0.359375 Z M 12.234375 0.359375 "/></g></g></g><g fill="#55298b" fill-opacity="1"><g transform="translate(246.423331, 244.20839)"><g><path d="M 12.234375 0.359375 C 10.804688 0.359375 9.472656 0.191406 8.234375 -0.140625 C 7.003906 -0.472656 5.90625 -0.96875 4.9375 -1.625 C 3.96875 -2.28125 3.171875 -3.082031 2.546875 -4.03125 C 1.921875 -4.988281 1.503906 -6.085938 1.296875 -7.328125 L 6.75 -8.578125 C 7.132812 -7.054688 7.816406 -5.929688 8.796875 -5.203125 C 9.773438 -4.484375 10.953125 -4.125 12.328125 -4.125 C 13.109375 -4.125 13.8125 -4.234375 14.4375 -4.453125 C 15.0625 -4.679688 15.550781 -5.023438 15.90625 -5.484375 C 16.269531 -5.953125 16.445312 -6.539062 16.4375 -7.25 C 16.4375 -7.90625 16.265625 -8.453125 15.921875 -8.890625 C 15.578125 -9.335938 15.117188 -9.71875 14.546875 -10.03125 C 13.972656 -10.351562 13.316406 -10.632812 12.578125 -10.875 C 11.835938 -11.125 11.066406 -11.375 10.265625 -11.625 C 9.484375 -11.863281 8.707031 -12.117188 7.9375 -12.390625 C 7.164062 -12.671875 6.4375 -13 5.75 -13.375 C 5.070312 -13.757812 4.46875 -14.210938 3.9375 -14.734375 C 3.40625 -15.253906 2.984375 -15.878906 2.671875 -16.609375 C 2.367188 -17.335938 2.21875 -18.195312 2.21875 -19.1875 C 2.21875 -20.40625 2.453125 -21.488281 2.921875 -22.4375 C 3.390625 -23.382812 4.046875 -24.1875 4.890625 -24.84375 C 5.734375 -25.5 6.722656 -25.992188 7.859375 -26.328125 C 8.992188 -26.671875 10.226562 -26.84375 11.5625 -26.84375 C 12.71875 -26.84375 13.859375 -26.71875 14.984375 -26.46875 C 16.109375 -26.21875 17.148438 -25.816406 18.109375 -25.265625 C 19.066406 -24.722656 19.878906 -24.007812 20.546875 -23.125 C 21.222656 -22.238281 21.695312 -21.160156 21.96875 -19.890625 L 16.984375 -18.65625 C 16.566406 -19.925781 15.925781 -20.859375 15.0625 -21.453125 C 14.195312 -22.054688 13.140625 -22.359375 11.890625 -22.359375 C 11.160156 -22.359375 10.484375 -22.25 9.859375 -22.03125 C 9.234375 -21.820312 8.726562 -21.5 8.34375 -21.0625 C 7.96875 -20.632812 7.78125 -20.078125 7.78125 -19.390625 C 7.78125 -18.835938 7.929688 -18.367188 8.234375 -17.984375 C 8.535156 -17.609375 8.945312 -17.285156 9.46875 -17.015625 C 9.988281 -16.753906 10.585938 -16.515625 11.265625 -16.296875 C 11.941406 -16.085938 12.648438 -15.875 13.390625 -15.65625 C 14.203125 -15.40625 15.019531 -15.132812 15.84375 -14.84375 C 16.664062 -14.5625 17.445312 -14.222656 18.1875 -13.828125 C 18.9375 -13.429688 19.609375 -12.945312 20.203125 -12.375 C 20.796875 -11.8125 21.265625 -11.132812 21.609375 -10.34375 C 21.953125 -9.550781 22.125 -8.617188 22.125 -7.546875 C 22.125 -6.285156 21.878906 -5.164062 21.390625 -4.1875 C 20.910156 -3.207031 20.226562 -2.375 19.34375 -1.6875 C 18.457031 -1.007812 17.410156 -0.5 16.203125 -0.15625 C 15.003906 0.1875 13.679688 0.359375 12.234375 0.359375 Z M 12.234375 0.359375 "/></g></g></g><g fill="#1da491" fill-opacity="1"><g transform="translate(157.642638, 265.104961)"><g><path d="M 10.265625 0 L 9.21875 0 L 8.65625 -6.984375 L 5.953125 0 L 5.3125 0 L 2.625 -6.953125 L 2.0625 0 L 1.015625 0 L 1.65625 -8.453125 L 3.0625 -8.453125 L 5.625 -1.859375 L 8.203125 -8.453125 L 9.625 -8.453125 Z M 10.265625 0 "/></g></g></g><g fill="#1da491" fill-opacity="1"><g transform="translate(171.275436, 265.104961)"><g><path d="M 6.75 0 L 6.03125 -2.03125 L 2.203125 -2.03125 L 1.484375 0 L 0.359375 0 L 3.46875 -8.453125 L 4.765625 -8.453125 L 7.875 0 Z M 2.546875 -2.96875 L 5.6875 -2.96875 L 4.125 -7.375 Z M 2.546875 -2.96875 "/></g></g></g><g fill="#1da491" fill-opacity="1"><g transform="translate(181.871564, 265.104961)"><g><path d="M 7.15625 0 L 5.90625 0 L 4 -3.28125 L 2.40625 -3.28125 L 2.40625 0 L 1.328125 0 L 1.328125 -8.453125 L 3.921875 -8.453125 C 4.867188 -8.453125 5.582031 -8.285156 6.0625 -7.953125 C 6.664062 -7.566406 6.96875 -6.914062 6.96875 -6 C 6.96875 -5.539062 6.894531 -5.132812 6.75 -4.78125 C 6.613281 -4.425781 6.398438 -4.140625 6.109375 -3.921875 C 5.972656 -3.796875 5.816406 -3.6875 5.640625 -3.59375 C 5.460938 -3.507812 5.265625 -3.445312 5.046875 -3.40625 Z M 2.40625 -7.515625 L 2.40625 -4.21875 L 3.78125 -4.21875 C 4.164062 -4.21875 4.492188 -4.25 4.765625 -4.3125 C 5.046875 -4.382812 5.269531 -4.507812 5.4375 -4.6875 C 5.582031 -4.820312 5.691406 -4.988281 5.765625 -5.1875 C 5.835938 -5.394531 5.875 -5.648438 5.875 -5.953125 C 5.875 -6.242188 5.832031 -6.488281 5.75 -6.6875 C 5.664062 -6.882812 5.554688 -7.039062 5.421875 -7.15625 C 5.242188 -7.300781 5.019531 -7.394531 4.75 -7.4375 C 4.476562 -7.488281 4.15625 -7.515625 3.78125 -7.515625 Z M 2.40625 -7.515625 "/></g></g></g><g fill="#1da491" fill-opacity="1"><g transform="translate(192.053605, 265.104961)"><g><path d="M 4.0625 -4.421875 L 7.5625 0 L 6.1875 0 L 3.140625 -3.90625 L 2.40625 -3.90625 L 2.40625 0 L 1.328125 0 L 1.328125 -8.453125 L 2.40625 -8.453125 L 2.40625 -4.875 L 3.140625 -4.875 L 6.0625 -8.453125 L 7.390625 -8.453125 Z M 4.0625 -4.421875 "/></g></g></g><g fill="#1da491" fill-opacity="1"><g transform="translate(202.301657, 265.104961)"><g><path d="M 5.859375 -7.46875 L 2.421875 -7.46875 L 2.421875 -4.703125 L 5.453125 -4.703125 L 5.453125 -3.734375 L 2.421875 -3.734375 L 2.421875 -0.984375 L 5.859375 -0.984375 L 5.859375 0 L 1.328125 0 L 1.328125 -8.453125 L 5.859375 -8.453125 Z M 5.859375 -7.46875 "/></g></g></g><g fill="#1da491" fill-opacity="1"><g transform="translate(211.253422, 265.104961)"><g><path d="M 5.75 -8.453125 L 5.75 -7.46875 L 3.578125 -7.46875 L 3.578125 0 L 2.515625 0 L 2.515625 -7.46875 L 0.34375 -7.46875 L 0.34375 -8.453125 Z M 5.75 -8.453125 "/></g></g></g></svg>